<svg xmlns="http://www.w3.org/2000/svg" xmlns:xlink="http://www.w3.org/1999/xlink" version="1.1" x="0px" y="0px" viewBox="0 0 100 125" enable-background="new 0 0 100 100" xml:space="preserve"><polygon points="6.375,50 2,50 7.056,76 7,76 7,96 11,96 11,77 26,77 26,96 30,96 30,77 30,76 30,74 11.625,74 "/><polygon points="99,50 94.625,50 89.375,74 71,74 71,76 71,77 71,96 75,96 75,77 90,77 90,96 94,96 94,76 93.944,76 "/><path d="M61.278,53c0.018,0,0.037-0.462,0.037-0.711c0-5.012-3.576-9.176-8.315-10.105V40h-3v2.037  c-5.228,0.501-9.316,4.886-9.316,10.245c0,0.249,0.02,0.718,0.037,0.718H61.278z"/><rect x="37" y="54" width="29" height="2"/><path d="M19,45l0.006,0.053C19.007,45.021,19.008,45,19.009,45H19z"/><path d="M84.138,45c0.001,0,0.001,0.021,0.003,0.053L84.146,45H84.138z"/><path d="M86.772,57H15.227C13.445,57,12,57.5,12,58.117v0.766C12,59.5,13.445,60,15.227,60H38v36h26V60h22.772  C88.555,60,90,59.5,90,58.883v-0.766C90,57.5,88.555,57,86.772,57z"/><path d="M24.6,56h-2.08l0.202-6.149c2.07-0.243,3.678-1.926,3.678-3.928c0-0.18-2.1-6.923-2.1-6.923h-4.2c0,0-2.1,6.509-2.1,6.873  c0,2.002,1.608,3.736,3.679,3.979L21.88,56H19.8c-0.332,0-0.6,0.168-0.6,0.5s0.268,0.5,0.6,0.5h2.12h0.56h2.12  c0.332,0,0.6-0.168,0.6-0.5S24.932,56,24.6,56z M20.482,40h3.436c0,0,0.642,2,1.142,4h-5.741C19.822,42,20.482,40,20.482,40z"/><path d="M82.6,56h-2.08l0.202-6.149c2.069-0.243,3.679-1.926,3.679-3.928C84.4,45.743,82.3,39,82.3,39h-4.2c0,0-2.1,6.509-2.1,6.873  c0,2.002,1.608,3.736,3.679,3.979L79.88,56H77.8c-0.331,0-0.6,0.168-0.6,0.5s0.269,0.5,0.6,0.5h2.12h0.561H82.6  c0.332,0,0.601-0.168,0.601-0.5S82.932,56,82.6,56z M78.482,40h3.436c0,0,0.643,2,1.143,4h-5.742C77.822,42,78.482,40,78.482,40z"/><text x="0" y="115" fill="#000000" font-size="5px" font-weight="bold" font-family="'Helvetica Neue', Helvetica, Arial-Unicode, Arial, Sans-serif">Created by Yi Chen</text><text x="0" y="120" fill="#000000" font-size="5px" font-weight="bold" font-family="'Helvetica Neue', Helvetica, Arial-Unicode, Arial, Sans-serif">from the Noun Project</text></svg>